<svg width="138" height="52" viewBox="0 0 138 52" fill="none" xmlns="http://www.w3.org/2000/svg">
<path d="M0 25.7692V0H5.41485V15.6481C7.60559 13.2389 10.8887 11.6564 14.4967 11.6564C22.6514 11.6564 28.5032 17.6204 28.5032 25.7752C28.5032 33.487 22.3739 39.7817 14.2782 39.7817C6.18249 39.7817 0 33.7055 0 25.7692ZM23.0884 25.7161C23.0884 20.8445 19.2561 16.7996 14.2782 16.7996C9.24717 16.7996 5.41485 20.8504 5.41485 25.7161C5.41485 30.6408 9.24717 34.6916 14.2782 34.6916C19.262 34.6857 23.0884 30.6408 23.0884 25.7161Z" fill="white"/>
<path d="M32.9321 25.657C32.9321 17.9451 39.2268 11.6504 47.2694 11.6504C55.3651 11.6504 61.4944 17.9982 61.4944 25.657C61.4944 33.4279 55.3119 39.7757 47.2694 39.7757C39.1737 39.7757 32.9321 33.4279 32.9321 25.657ZM56.0796 25.716C56.0796 20.7913 52.2473 16.7405 47.2694 16.7405C42.2383 16.7405 38.3529 20.7913 38.3529 25.716C38.3529 30.5876 42.2383 34.6325 47.2694 34.6325C52.2473 34.6325 56.0796 30.5817 56.0796 25.716Z" fill="white"/>
<path d="M65.8696 25.657C65.8696 17.9451 72.1643 11.6504 80.2069 11.6504C88.3026 11.6504 94.4319 17.9982 94.4319 25.657C94.4319 33.4279 88.2494 39.7757 80.2069 39.7757C72.1053 39.7757 65.8696 33.4279 65.8696 25.657ZM89.0112 25.716C89.0112 20.7913 85.1788 16.7405 80.201 16.7405C75.1699 16.7405 71.2845 20.7913 71.2845 25.716C71.2845 30.5876 75.1699 34.6325 80.201 34.6325C85.1848 34.6325 89.0112 30.5817 89.0112 25.716Z" fill="white"/>
<path d="M100.497 51.4321V25.657C100.497 17.6675 106.679 11.6504 114.775 11.6504C122.87 11.6504 129 17.9982 129 25.657C129 33.7526 123.148 39.7757 114.993 39.7757C111.379 39.7757 108.102 38.1873 105.911 35.7839V51.4321H100.497ZM123.585 25.716C123.585 20.7913 119.753 16.7995 114.775 16.7995C109.744 16.7995 105.911 20.7913 105.911 25.716C105.911 30.5876 109.744 34.6915 114.775 34.6915C119.759 34.6856 123.585 30.5817 123.585 25.716Z" fill="white"/>
<path d="M133.039 7.09822C131.079 8.22607 129.909 11.0545 130.476 12.0997C131.126 13.3043 134.102 13.5523 136.062 12.4304C138.023 11.3025 138.43 9.50745 137.58 8.0253C136.718 6.53725 134.999 5.97037 133.039 7.09822Z" fill="white"/>
<path d="M123.084 4.09801C122.576 6.1116 123.704 8.68617 124.755 8.98142C125.965 9.32391 128.026 7.51698 128.528 5.50339C129.03 3.4898 128.109 2.07853 126.585 1.6947C125.056 1.31088 123.586 2.08442 123.084 4.09801Z" fill="white"/>
</svg>
