<svg width="176" height="41" viewBox="0 0 176 41" fill="none" xmlns="http://www.w3.org/2000/svg">
<path d="M75.6179 6.72802V0H82.184V18.3253H75.6179V11.8853H70.1287V18.3253H63.5627V0H70.1287V6.72802H75.6179Z" fill="white"/>
<path d="M93.8114 11.8329V3.58653H100.089V18.3253H93.8114V16.4143C92.7609 17.8541 91.185 18.718 89.4253 18.718C85.8534 18.718 83.831 16.5713 83.831 12.6707V3.58653H90.1082V11.2308C90.1082 12.6707 90.686 13.2728 91.7891 13.2728C92.7083 13.2728 93.4175 12.6445 93.8114 11.8329Z" fill="white"/>
<path d="M112.336 3.19385C115.908 3.19385 117.931 5.34053 117.931 9.24121V18.3253H111.654V10.6811C111.654 9.24121 111.076 8.63909 109.973 8.63909C109.053 8.63909 108.344 9.26739 107.95 10.0789V18.3253H101.673V3.58653H107.95V5.4976C109.001 4.05776 110.577 3.19385 112.336 3.19385Z" fill="white"/>
<path d="M125.819 14.2414L127.579 14.2152C133.252 14.1367 135.195 15.6289 135.195 18.3515C135.195 21.4145 132.149 23.1685 126.265 23.1685C121.433 23.1685 119.148 21.9904 119.148 19.4772C119.148 18.3515 119.909 17.5138 120.776 16.964C119.804 16.4143 119.384 15.5242 119.384 14.6079C119.384 13.4299 120.198 12.5398 121.144 11.9638C119.962 11.0737 119.358 9.81715 119.358 8.27258C119.358 5.15728 122.116 3.19385 126.712 3.19385C127.973 3.19385 129.049 3.32474 129.916 3.69125L134.013 2.67026L134.959 6.1259L133.304 6.23062C133.803 6.7542 134.197 7.48721 134.197 8.27258C134.197 11.4141 131.413 13.4037 126.764 13.4037C126.108 13.4037 125.504 13.3775 124.952 13.299C124.847 13.456 124.795 13.6131 124.795 13.7964C124.795 14.2152 125.215 14.2414 125.819 14.2414ZM126.738 6.98981C125.898 6.98981 125.399 7.46103 125.399 8.2464C125.399 9.11031 125.898 9.63389 126.738 9.63389C127.579 9.63389 128.104 9.11031 128.104 8.2464C128.104 7.46103 127.579 6.98981 126.738 6.98981ZM126.738 19.1893C128.577 19.1893 129.207 18.9798 129.207 18.2206C129.207 17.8018 128.55 17.6185 127.106 17.6185H125.005C124.847 17.8279 124.768 18.0374 124.768 18.2206C124.768 19.0845 125.793 19.1893 126.738 19.1893Z" fill="white"/>
<path d="M146.025 3.22003C146.577 3.22003 147.207 3.29856 147.864 3.48182L147.233 8.79616L145.027 8.76999C143.372 8.76999 142.269 10.2622 142.269 12.3827V18.3253H135.992V3.58653H142.269V5.57614C143.005 4.11011 144.213 3.22003 146.025 3.22003Z" fill="white"/>
<path d="M156.689 11.6497L159.158 3.58653H165.803L159.788 18.3253L158.002 22.802H151.62L153.563 18.273L147.602 3.58653H154.22L156.689 11.6497Z" fill="white"/>
<path d="M78.7959 22.0886H85.3882L86.4388 40.4139H79.8727L79.3212 32.1675L76.0382 40.4401H73.4905L70.1025 32.1675L69.5509 40.4139H62.9849L64.0354 22.0886H70.654L74.6987 30.9633L78.7959 22.0886Z" fill="white"/>
<path d="M94.4588 25.2824C100.316 25.2824 102.627 28.0836 102.627 32.2461V40.4139H96.3761V38.6599C95.5356 39.9951 94.0123 40.7804 92.1213 40.7804C89.0746 40.7804 86.921 38.9479 86.921 36.0944C86.921 33.2147 89.0746 31.6178 93.1456 31.6178C94.0386 31.6178 95.378 31.6701 96.3498 31.7225V31.6963C96.3498 30.623 95.5356 29.9947 93.6971 29.9947C92.1213 29.9947 90.6768 30.2041 89.311 30.623L88.8645 25.9893C90.5717 25.5442 92.3577 25.2824 94.4588 25.2824ZM94.3012 36.4609C95.378 36.4609 96.2185 35.8326 96.3498 34.4975V34.0262C95.9033 34.0001 95.4306 34.0001 94.774 34.0001C93.5921 34.0001 92.9355 34.4975 92.9355 35.309C92.9355 35.9897 93.487 36.4609 94.3012 36.4609Z" fill="white"/>
<path d="M111.149 40.7804C107.288 40.7804 105.056 38.817 105.056 35.021V30.335H103.454V28.0836L106.054 25.3348L108.943 22.2457H111.307V25.6751H115.43V30.335H111.307V34.3404C111.307 35.1258 111.727 35.5708 112.462 35.5708C113.145 35.5708 113.881 35.4399 114.774 35.0996L115.903 39.6547C114.38 40.4401 112.594 40.7804 111.149 40.7804Z" fill="white"/>
<path d="M131.434 34.4713H121.821C122.241 35.7802 123.581 36.1729 125.104 36.1729C126.312 36.1729 127.678 35.8588 128.965 35.2828L130.199 39.2097C128.282 40.283 126.312 40.7804 124.369 40.7804C119.667 40.7804 115.833 37.7698 115.833 33.0053C115.833 28.5548 119.221 25.2824 124.237 25.2824C128.886 25.2824 131.985 28.0312 131.985 31.7225C131.985 32.6387 131.802 33.555 131.434 34.4713ZM123.975 29.7852C122.583 29.7852 121.979 30.5444 121.795 31.9319L126.05 31.8796C125.971 30.4659 125.314 29.7852 123.975 29.7852Z" fill="white"/>
<path d="M138.927 40.7804C136.064 40.7804 134.357 40.4401 132.44 39.6286L133.123 35.2043C134.909 36.0682 137.167 36.5132 139.373 36.5132C139.978 36.5132 140.529 36.3562 140.503 35.8326C140.503 35.3875 140.004 35.1781 138.349 34.9425C134.068 34.3666 132.308 33.1623 132.308 30.4135C132.308 27.0364 135.46 25.2824 139.4 25.2824C141.632 25.2824 143.628 25.806 145.335 26.3819L144.679 30.6753C143.077 30.1517 140.765 29.5758 139.111 29.5758C138.244 29.5758 138.034 29.8899 138.034 30.1779C138.034 30.5182 138.27 30.7277 139.978 30.9633C144.18 31.513 146.255 32.7958 146.255 35.6232C146.255 39.0003 143.077 40.7804 138.927 40.7804Z" fill="white"/>
<path d="M171.692 3.59961C174.082 3.59961 175.999 5.51068 175.999 7.8668C175.999 10.2491 174.082 12.1602 171.692 12.1602C169.302 12.1602 167.385 10.2491 167.385 7.8668C167.385 5.51068 169.302 3.59961 171.692 3.59961ZM171.692 11.3748C173.636 11.3748 175.211 9.80405 175.211 7.8668C175.211 5.95573 173.636 4.38498 171.692 4.38498C169.775 4.38498 168.199 5.95573 168.199 7.8668C168.199 9.80405 169.775 11.3748 171.692 11.3748ZM173.137 8.52127L174.187 9.9873H172.217L171.613 8.78306H171.324V9.9873H169.696V5.43214H171.85C173.163 5.43214 174.03 6.1128 174.03 7.1076C174.03 7.78826 173.688 8.25948 173.137 8.52127ZM171.823 6.66256H171.324V7.63119H171.823C172.165 7.63119 172.401 7.44793 172.401 7.13378C172.401 6.87199 172.165 6.66256 171.823 6.66256Z" fill="white"/>
<path fill-rule="evenodd" clip-rule="evenodd" d="M0.902344 27.1875C3.07928 33.3475 8.95386 37.7609 15.8592 37.7609H41.2649C48.1703 37.7609 54.0449 33.3475 56.2218 27.1875H0.902344Z" fill="white"/>
<path fill-rule="evenodd" clip-rule="evenodd" d="M0.902344 13.5938C3.07928 19.7537 8.95386 24.1671 15.8592 24.1671H41.2649C48.1703 24.1671 54.0449 19.7537 56.2218 13.5938H0.902344Z" fill="white"/>
<path fill-rule="evenodd" clip-rule="evenodd" d="M0.902344 0C3.07928 6.15996 8.95386 10.5734 15.8592 10.5734H41.2649C48.1703 10.5734 54.0449 6.15996 56.2218 0H0.902344Z" fill="white"/>
<rect x="6.76465" y="37.0049" width="42.8429" height="3.77597" fill="white"/>
</svg>
