<svg width="302" height="60" viewBox="0 0 302 60" fill="none" xmlns="http://www.w3.org/2000/svg">
<path d="M12.7591 41.3274C9.89475 41.3274 7.19406 39.8542 5.92555 37.6037V41H2.65197V11.9061H5.92555V23.7319C7.19406 21.5222 9.85383 20.0491 12.7591 20.0491C19.1835 20.0491 22.7026 24.6731 22.7026 30.6882C22.7026 36.7034 19.1835 41.3274 12.7591 41.3274ZM12.4727 38.3811C16.6465 38.3811 19.3472 35.3531 19.3472 30.6882C19.3472 26.0234 16.6465 22.9953 12.4727 22.9953C8.33981 22.9953 5.63911 26.0234 5.63911 30.6882C5.63911 35.3531 8.33981 38.3811 12.4727 38.3811ZM42.5928 20.3765L36.0456 38.1765L32.281 49.3476H29.1302L31.7491 41.3274L24.0562 20.3765H27.4525L33.304 36.7444L39.1555 20.3765H42.5928Z" fill="white"/>
<path d="M94.0471 24.8716C98.0733 22.8585 100.736 19.4816 100.736 14.6112C100.736 6.49388 95.151 0.974081 85.9946 0.974081H68.2014V46.4312H74.9551V28.5081H86.3193C90.2157 28.5081 92.8782 31.3654 93.2029 35.3916L94.112 46.4312H100.671L99.7617 34.8072C99.5019 30.3913 97.3589 26.8197 94.0471 24.8716ZM74.9551 6.81857H85.7998C91.7093 6.81857 93.9821 10.4551 93.9821 14.6112C93.9821 18.7024 91.7093 22.5338 85.7998 22.5338H74.9551V6.81857Z" fill="white"/>
<path d="M127.149 35.7813C126.24 39.4828 123.123 41.5608 118.318 41.5608C112.603 41.5608 108.577 37.3398 108.057 31.1706H133.059C133.124 30.5862 133.189 29.5471 133.189 28.7029C133.189 20.3908 127.799 13.1826 117.668 13.1826C107.603 13.1826 101.888 20.7155 101.888 29.8718C101.888 38.9633 108.187 46.9507 118.318 46.9507C126.37 46.9507 132.279 42.5349 133.448 35.7813H127.149ZM117.668 18.2478C123.058 18.2478 126.435 21.5597 126.825 26.56H108.252C109.226 21.1051 112.538 18.2478 117.668 18.2478Z" fill="white"/>
<path d="M150.437 46.9507C154.788 46.9507 158.814 44.8078 160.762 41.5608V46.4312H167.061V0H160.762V18.5076C158.814 15.3256 154.852 13.1826 150.372 13.1826C140.371 13.1826 134.721 20.3258 134.721 30.0667C134.721 39.8075 140.371 46.9507 150.437 46.9507ZM151.151 41.4309C145.112 41.4309 141.15 36.8852 141.15 30.0667C141.15 23.2481 145.112 18.7024 151.151 18.7024C157.255 18.7024 161.216 23.2481 161.216 30.0667C161.216 36.8852 157.255 41.4309 151.151 41.4309Z" fill="white"/>
<path d="M172.94 46.4312H201.837V40.4569H179.693V0.974081H172.94V46.4312Z" fill="white"/>
<path d="M202.841 0V7.92253H209.854V0H202.841ZM203.23 46.4312H209.529V13.7021H203.23V46.4312Z" fill="white"/>
<path d="M237.985 13.7021V18.053C235.972 15.1957 231.946 13.1826 227.595 13.1826C217.594 13.1826 211.944 20.3258 211.944 30.0667C211.944 39.8075 217.594 46.9507 227.66 46.9507C232.27 46.9507 236.426 45.0675 237.985 42.2751V47.6001C237.985 51.5614 235.257 54.4187 231.491 54.4187H216.36V59.6787H232.14C239.284 59.6787 244.284 54.8733 244.284 47.9898V13.7021H237.985ZM228.374 41.4309C222.335 41.4309 218.373 36.9502 218.373 30.0667C218.373 23.1831 222.335 18.7024 228.374 18.7024C234.478 18.7024 238.439 23.1831 238.439 30.0667C238.439 36.9502 234.478 41.4309 228.374 41.4309Z" fill="white"/>
<path d="M249.396 46.4312H255.695V28.7029C255.695 22.9883 259.331 18.8322 264.461 18.8322C269.072 18.8322 272.124 22.3389 272.124 27.534V46.4312H278.423V26.3002C278.423 18.5076 273.618 13.1826 266.215 13.1826C261.344 13.1826 257.448 15.3905 255.695 19.4816V0H249.396V46.4312Z" fill="white"/>
<path d="M285.615 3.44175V13.7021H278.926V19.1569H285.615V35.7163C285.615 42.405 289.836 46.4312 296.46 46.4312H301.59V40.9764H296.979C293.797 40.9764 291.914 39.0282 291.914 35.5215V19.1569H301.59V13.7021H291.914V3.44175H285.615Z" fill="white"/>
</svg>
