<svg width="539" height="95" viewBox="0 0 539 95" fill="none" xmlns="http://www.w3.org/2000/svg">
<path d="M15.816 94.664C4.296 94.664 0.712 85.832 0.712 75.976C0.712 65.096 4.168 58.952 8.264 49.224C11.72 40.648 16.2 28.36 16.2 19.016C16.2 11.72 15.176 3.52799 6.344 3.144C5.576 3.144 5.448 2.12 5.448 1.864C5.448 1.60799 5.704 1.48 6.728 1.48C11.08 1.48 15.176 1.352 25.288 1.352H32.84C35.528 1.352 36.04 1.48 36.808 2.24799C44.872 11.08 45.768 16.584 45.768 25.16C45.768 30.28 43.464 35.784 42.568 41.928C42.568 42.184 42.568 42.44 42.952 42.568C43.976 42.184 45.512 42.056 47.304 42.056C53.192 42.056 61.896 43.72 63.816 44.104C64.072 44.104 64.2 44.232 64.2 44.232C64.456 44.232 64.584 44.104 64.712 43.848C66.376 38.856 68.808 26.952 68.808 17.224C68.808 10.056 66.632 5.19199 59.976 3.784C59.336 3.656 58.696 3.656 58.056 3.656C55.624 3.656 54.856 3.144 54.856 2.376C54.856 1.864 55.112 1.352 57.416 1.352H87.368C91.08 1.352 98.632 11.592 98.632 21.832C98.632 34.632 94.92 49.608 94.664 54.984V56.008C94.664 65.352 99.528 75.08 99.528 81.736C99.528 83.528 99.144 85.064 98.248 86.472C94.92 94.152 88.776 94.664 80.712 94.664C68.04 94.664 54.6 93.512 54.6 77.896C54.6 70.088 58.44 59.592 59.976 54.856C58.44 53.448 55.24 53.064 52.04 53.064C49.224 53.064 46.536 53.448 44.744 53.576C42.056 53.96 41.672 56.392 41.672 58.696C41.672 64.328 43.848 70.344 45.128 75.592C45.512 77.512 45.512 79.304 45.512 81.224C45.512 88.776 42.184 92.36 34.76 94.408C34.376 94.408 32.84 94.664 32.584 94.664H15.816ZM109.18 80.584C109.18 53.192 123.644 43.336 123.644 19.4C123.644 15.304 122.876 10.568 120.444 6.98399C118.652 3.784 115.708 3.91199 115.708 2.632C115.708 1.48 118.908 1.224 121.852 1.224H150.012C159.484 1.224 169.212 1.224 179.452 1.09599C188.54 1.09599 191.868 7.49599 193.532 15.816C193.66 16.712 193.788 17.736 193.788 18.632C193.788 23.624 191.996 28.488 191.996 33.352C191.996 36.168 193.02 38.984 193.02 41.672C193.02 42.568 192.636 42.952 191.868 42.952C189.948 42.952 186.108 40.392 185.084 39.624C179.58 35.784 176.38 29.512 174.332 23.112C170.236 10.952 160.764 3.656 150.524 3.656C149.5 3.656 146.428 3.784 145.404 3.91199C148.604 8.26399 152.444 15.56 152.444 26.696C152.444 30.92 151.804 35.272 151.804 39.496C151.804 40.136 157.436 40.264 158.076 40.264C162.94 40.264 164.604 36.936 164.604 32.712C164.604 28.104 162.684 25.288 159.74 21.448C159.74 21.32 159.612 20.936 159.612 20.808C159.612 19.4 160.764 18.248 161.788 18.248C161.916 18.248 162.044 18.376 162.172 18.376C166.908 20.168 169.084 29.384 169.084 34.504C169.084 38.344 167.804 40.136 167.804 42.44C167.804 46.28 168.828 52.424 168.828 56.136C168.828 59.592 166.652 65.096 162.428 65.096C161.66 65.096 160.252 64.84 160.252 63.816C160.252 62.28 161.788 60.488 161.788 58.824C161.788 53.96 155.644 48.84 150.268 48.456C149.372 52.936 149.244 56.904 149.244 61.512C149.244 70.984 152.956 81.864 163.708 83.272C163.708 71.752 171.004 63.048 179.452 57.544C182.14 55.88 185.596 54.984 188.668 54.984C191.612 54.984 195.196 57.16 195.196 63.56C195.196 67.912 193.532 72.008 193.532 76.36V77C193.532 77.128 193.66 77.384 193.66 77.512C194.3 79.688 195.196 82.632 195.196 86.856C195.196 92.104 191.356 94.536 185.98 94.536H164.092C158.204 94.536 154.108 90.44 151.548 88.52C148.86 91.464 144.764 94.408 140.54 94.408C136.572 94.408 131.452 94.536 126.46 94.536C123.26 94.536 120.188 94.28 117.628 93.384C113.02 91.72 109.18 85.576 109.18 80.584ZM220.657 94.536C211.441 94.536 207.601 88.264 206.449 81.224C206.193 79.688 206.065 78.152 206.065 76.616C206.065 66.504 211.185 56.008 215.793 43.08L218.865 34.376C220.529 29.896 220.913 24.776 220.913 19.016C220.913 5.448 215.409 6.98399 215.409 3.144C215.409 1.09599 218.609 1.09599 220.529 1.09599H239.345C241.393 1.09599 243.441 3.784 244.337 4.936C249.457 11.464 251.377 19.4 251.377 27.72C251.377 30.28 251.249 32.84 250.865 35.4C249.201 48.328 246.385 57.544 246.385 64.84C246.385 73.544 250.097 81.224 259.057 83.784C258.673 81.864 258.417 80.2 258.417 78.408C258.417 76.104 258.801 73.672 259.441 71.112C261.361 63.56 268.785 53.192 277.873 51.912C278.513 51.784 279.153 51.784 279.665 51.784C285.809 51.784 287.601 56.776 287.601 61.512C287.601 63.432 287.217 65.352 286.833 66.76C285.809 69.96 285.041 73.416 285.041 76.744C285.041 79.048 285.425 81.352 286.065 83.656C286.321 84.68 286.961 85.576 286.961 86.6C286.961 93.128 279.537 94.536 273.649 94.536H253.041C248.945 93.896 245.617 90.184 245.105 90.184C244.081 90.184 239.473 94.536 236.529 94.536H220.657ZM312.777 94.536C303.561 94.536 299.721 88.264 298.569 81.224C298.313 79.688 298.185 78.152 298.185 76.616C298.185 66.504 303.305 56.008 307.913 43.08L310.985 34.376C312.649 29.896 313.033 24.776 313.033 19.016C313.033 5.448 307.529 6.98399 307.529 3.144C307.529 1.09599 310.729 1.09599 312.649 1.09599H331.465C333.513 1.09599 335.561 3.784 336.457 4.936C341.577 11.464 343.497 19.4 343.497 27.72C343.497 30.28 343.369 32.84 342.985 35.4C341.321 48.328 338.505 57.544 338.505 64.84C338.505 73.544 342.217 81.224 351.177 83.784C350.793 81.864 350.537 80.2 350.537 78.408C350.537 76.104 350.921 73.672 351.561 71.112C353.481 63.56 360.905 53.192 369.993 51.912C370.633 51.784 371.273 51.784 371.785 51.784C377.929 51.784 379.721 56.776 379.721 61.512C379.721 63.432 379.337 65.352 378.953 66.76C377.929 69.96 377.161 73.416 377.161 76.744C377.161 79.048 377.545 81.352 378.185 83.656C378.441 84.68 379.081 85.576 379.081 86.6C379.081 93.128 371.657 94.536 365.769 94.536H345.161C341.065 93.896 337.737 90.184 337.225 90.184C336.201 90.184 331.593 94.536 328.649 94.536H312.777ZM444.577 93.768C440.993 94.152 437.665 94.28 434.465 94.28C402.081 94.28 392.865 77.512 391.201 55.496V53.96C391.201 36.296 410.913 1.864 434.977 1.48H435.745C454.689 1.48 468.897 11.592 476.833 28.104C480.417 35.528 482.081 43.208 482.081 51.144C482.081 72.392 468.129 91.592 444.577 93.768ZM426.017 68.808C426.017 76.488 428.065 88.776 438.049 88.776C442.785 88.776 445.217 84.04 445.217 79.944C445.217 78.024 444.577 75.592 444.577 61.768C444.577 56.52 448.929 26.184 448.929 25.16C448.929 24.648 449.057 24.008 449.057 23.24C449.057 16.84 446.881 3.656 435.361 3.656C432.929 3.656 429.089 5.96 429.089 9.28799C429.089 9.672 429.089 10.952 429.217 11.208C430.625 16.712 431.649 22.344 431.649 27.976C431.649 31.944 430.753 34.12 426.657 59.208C426.145 62.28 426.017 65.736 426.017 68.808ZM500.307 81.608C500.307 73.928 507.347 67.144 514.515 67.144C521.683 67.144 529.875 72.264 529.875 80.584C529.875 87.368 524.499 94.28 516.179 94.28H515.155C506.707 93.768 501.075 90.824 500.307 81.608ZM515.411 0.455994C525.779 0.455994 538.579 2.632 538.579 16.2C538.579 31.432 523.987 41.032 516.307 53.192C515.027 55.112 514.899 56.904 514.899 58.824C514.899 60.488 515.411 62.28 515.411 64.328C515.411 65.992 513.235 66.376 511.827 66.376C509.523 66.376 506.579 57.416 503.763 46.152C500.051 31.304 495.571 33.736 495.571 21.32C495.571 19.784 495.699 18.12 495.827 16.2C496.467 7.368 500.307 0.455994 515.411 0.455994Z" fill="#FFE4C3"/>
</svg>
