<svg width="600" height="96" viewBox="0 0 600 96" fill="none" xmlns="http://www.w3.org/2000/svg">
<path d="M70.984 90.056C65.224 94.664 55.24 93.512 44.744 94.024C41.928 94.152 39.24 94.152 36.808 94.152C19.272 94.152 11.592 90.824 5.704 82.888C3.272 79.816 0.712 72.776 0.712 66.76C0.712 61.256 2.888 56.52 9.16 56.52C15.688 56.52 23.368 61.768 24.52 68.424L26.44 78.792C27.08 82.376 30.408 86.984 34.376 86.984C37.32 86.984 38.344 84.552 38.344 81.864C38.344 78.92 37.704 75.976 37.704 72.904C37.704 66.504 39.88 60.488 42.184 54.6C46.536 42.824 52.168 31.304 52.168 18.504C52.168 14.408 50.76 5.83199 46.152 4.168C43.848 3.016 40.392 3.272 37.704 3.144C37.32 3.016 37.064 2.632 37.064 2.376C37.064 1.992 37.32 1.48 37.96 1.48H42.056C50.632 1.48 59.336 1.60799 68.68 1.60799C75.592 1.60799 81.352 13 81.352 26.184C81.352 31.432 77.512 58.696 77.512 59.208C77.512 63.688 78.536 67.912 78.536 72.264C78.536 79.688 76.616 85.192 70.984 90.056ZM147.342 93.768C143.758 94.152 140.43 94.28 137.23 94.28C104.846 94.28 95.63 77.512 93.966 55.496V53.96C93.966 36.296 113.678 1.864 137.742 1.48H138.51C157.454 1.48 171.662 11.592 179.598 28.104C183.182 35.528 184.846 43.208 184.846 51.144C184.846 72.392 170.894 91.592 147.342 93.768ZM128.782 68.808C128.782 76.488 130.83 88.776 140.814 88.776C145.55 88.776 147.982 84.04 147.982 79.944C147.982 78.024 147.342 75.592 147.342 61.768C147.342 56.52 151.694 26.184 151.694 25.16C151.694 24.648 151.822 24.008 151.822 23.24C151.822 16.84 149.646 3.656 138.126 3.656C135.694 3.656 131.854 5.96 131.854 9.28799C131.854 9.672 131.854 10.952 131.982 11.208C133.39 16.712 134.414 22.344 134.414 27.976C134.414 31.944 133.518 34.12 129.422 59.208C128.91 62.28 128.782 65.736 128.782 68.808ZM212.152 94.536C201.656 94.536 192.696 87.88 192.696 72.392C195 46.408 206.52 39.368 206.52 18.12C206.52 13.64 205.368 7.24 199.608 7.24C197.688 7.24 196.536 7.88 194.872 7.88C194.232 7.88 193.976 7.62399 193.976 6.34399C193.976 4.55199 199.736 3.144 202.68 3.144C205.112 3.144 207.416 3.784 209.848 3.784C213.048 3.784 215.224 1.224 217.912 1.224C225.208 1.224 230.84 19.528 231.864 24.264C232.376 26.568 232.632 29.128 232.632 31.56C232.632 35.144 232.376 38.856 232.248 42.824V43.848C232.248 55.24 236.344 62.152 236.344 72.008C236.344 85.448 228.024 94.536 212.152 94.536ZM272.124 54.088C270.972 46.792 271.356 23.624 265.212 15.688C264.956 15.688 264.7 15.944 264.572 16.328C263.42 23.88 259.708 56.392 258.94 63.56C258.94 68.04 259.708 72.392 261.116 76.872C262.012 79.944 263.676 84.68 263.676 88.264C263.676 91.592 259.452 93.512 255.612 93.512C248.572 93.512 248.06 87.24 248.06 80.968C248.06 71.752 249.724 58.824 251.9 51.528C254.46 42.568 260.86 26.184 260.86 16.584C260.86 10.824 258.94 5.448 253.308 3.784C252.156 3.39999 249.98 3.91199 249.852 2.24799C249.852 1.73599 250.876 1.60799 252.028 1.60799C258.428 1.60799 264.7 1.352 272.38 1.352H281.852C288.252 1.352 292.604 10.312 295.292 15.816C300.028 27.336 301.948 36.936 306.556 48.328C307.196 49.864 308.348 52.296 309.756 53.448C311.036 41.672 318.844 34.632 318.844 22.472C318.844 17.224 317.564 11.592 313.852 7.62399C311.292 4.936 308.604 4.03999 308.604 3.272C308.604 1.992 309.116 1.352 310.652 1.352H317.436C319.74 1.352 322.044 1.352 324.476 1.60799C325.116 1.73599 325.116 2.88799 325.116 3.272C325.116 4.808 323.964 5.064 322.94 6.34399C321.66 7.752 321.02 9.92799 321.02 12.36C322.556 18.76 323.58 25.032 323.58 31.688C323.58 39.88 320.38 47.688 320.38 56.264C320.38 57.032 320.508 57.672 320.508 58.44C320.764 63.56 321.276 68.04 323.58 72.904C323.836 73.544 326.652 78.792 327.036 79.432C327.932 81.224 328.444 83.656 328.444 85.96C328.444 88.136 328.06 90.312 327.036 91.976C326.268 93.256 323.964 94.024 322.556 94.152C317.948 94.664 313.34 94.92 308.732 94.92C303.868 94.92 298.876 94.664 294.012 93.896C291.58 93.512 289.276 91.848 287.74 90.056C277.244 79.048 274.428 68.04 272.124 54.088ZM417.882 95.432C390.362 95.432 379.866 89.288 379.866 65.096C379.866 50.12 391.13 34.888 391.13 17.864C390.746 12.616 389.85 6.216 383.962 3.91199C383.322 3.656 382.682 3.52799 377.946 3.52799C377.05 3.52799 376.794 3.016 376.794 2.632C376.794 1.992 376.922 1.352 377.562 1.352C382.17 1.352 402.522 1.352 411.354 1.224C412.762 1.48 416.986 8.64799 417.626 9.8C420.698 14.792 421.722 21.192 421.722 27.976C421.722 42.312 417.114 58.952 417.114 69.704C417.114 76.616 419.034 81.096 425.306 81.096C440.538 81.096 446.298 57.288 446.298 44.36C446.298 36.68 445.146 26.824 442.842 18.248C441.434 13.128 439.514 7.88 435.29 4.808C432.858 3.144 431.322 3.656 429.402 3.144C429.146 2.88799 429.146 1.864 429.146 1.73599C429.146 1.352 430.17 1.224 431.834 1.224C435.546 1.224 442.458 1.352 448.346 1.352C450.138 1.352 451.674 1.224 453.722 1.224C455.258 1.224 457.05 2.12 457.05 3.016C457.05 3.144 457.05 3.272 456.922 3.39999C456.794 3.52799 456.666 3.52799 451.29 3.52799C449.498 3.52799 445.786 5.31999 445.018 10.184V10.696C445.018 16.456 454.106 38.6 454.106 53.576C454.106 58.568 453.466 63.56 451.93 68.296C446.938 84.04 433.882 95.432 417.882 95.432ZM468.694 69.96C468.694 64.584 472.534 59.336 478.294 59.336C485.974 59.336 490.582 66.632 493.27 72.904C496.342 81.736 500.182 92.872 511.19 92.872C516.822 92.872 522.07 89.032 522.07 82.888C522.07 76.104 517.462 70.6 511.702 67.144C487.638 52.424 467.67 47.432 467.67 26.44C467.67 13.64 479.318 1.352 493.526 1.352H507.222C517.206 1.352 522.582 7.368 530.774 12.232C532.182 13 533.974 13.768 535.51 14.152C538.454 14.792 539.99 13.896 539.99 17.352C539.99 24.264 533.334 29.128 526.678 29.128C519.766 29.128 514.39 23.88 511.062 18.248C506.454 10.312 504.918 3.144 495.062 3.144C489.174 3.144 484.95 6.856 484.95 12.872C484.95 18.12 489.942 21.96 494.038 24.136L524.502 40.52C539.35 48.456 543.958 59.336 543.958 68.296C543.958 73.16 542.678 77.512 540.886 80.584C536.406 88.392 526.678 94.408 511.19 94.408C498.262 94.408 482.518 93.896 473.686 82.76C470.486 78.792 468.694 75.08 468.694 69.96ZM561.172 81.608C561.172 73.928 568.212 67.144 575.38 67.144C582.548 67.144 590.74 72.264 590.74 80.584C590.74 87.368 585.364 94.28 577.044 94.28H576.02C567.572 93.768 561.94 90.824 561.172 81.608ZM576.276 0.455994C586.644 0.455994 599.444 2.632 599.444 16.2C599.444 31.432 584.852 41.032 577.172 53.192C575.892 55.112 575.764 56.904 575.764 58.824C575.764 60.488 576.276 62.28 576.276 64.328C576.276 65.992 574.1 66.376 572.692 66.376C570.388 66.376 567.444 57.416 564.628 46.152C560.916 31.304 556.436 33.736 556.436 21.32C556.436 19.784 556.564 18.12 556.692 16.2C557.332 7.368 561.172 0.455994 576.276 0.455994Z" fill="#F1F0FC"/>
</svg>
