<svg width="1112" height="94" viewBox="0 0 1112 94" fill="none" xmlns="http://www.w3.org/2000/svg">
<path d="M0.712 76C0.712 65.632 6.472 53.984 9.8 44.384C11.848 38.624 15.56 27.488 15.56 18.272C15.56 9.56799 12.36 2.52799 1.48 2.52799C0.84 2.52799 0.712 1.75999 0.712 1.504C0.712 1.24799 0.84 0.351997 1.48 0.351997H32.84C52.296 0.351997 74.824 0.735992 89.544 16.224C94.28 21.344 96.072 27.36 96.072 34.272C96.072 52.576 83.144 56.544 72.136 56.544C63.176 56.544 53.32 53.472 44.104 50.528L42.184 49.76C41.288 51.552 41.288 53.984 41.288 56.288V57.056C41.288 68.96 44.616 73.056 44.616 79.84C44.616 93.28 34.376 93.408 23.752 93.408H23.112C7.624 93.408 0.712 92.64 0.712 76ZM43.72 42.464C45.768 44.128 49.096 44.128 51.656 44.128C60.232 44.128 62.024 33.888 62.024 24.672C62.024 13.408 52.04 2.91199 39.752 2.91199C38.472 2.91199 37.704 3.03999 37.704 3.55199C43.336 11.36 44.872 18.144 44.872 25.696C44.872 30.816 44.232 36.192 43.72 42.464ZM107.805 85.6C107.933 67.296 130.461 51.936 139.933 25.312C141.213 21.6 143.005 17.888 143.005 13.664V12C142.493 4.064 138.653 2.656 137.501 2.52799C136.349 2.39999 134.941 2.39999 134.941 2.39999C134.173 2.272 134.045 2.016 134.045 1.24799C134.045 0.863998 134.301 0.607994 135.325 0.479996C136.349 0.351997 140.061 0.351997 141.853 0.351997H152.605C168.349 0.351997 170.397 2.784 176.925 18.656C184.477 37.088 186.141 56.032 199.581 73.824C202.781 78.048 205.469 79.84 205.469 85.6C205.469 90.208 203.421 93.024 198.173 93.024H170.909C158.493 93.024 155.293 74.976 154.013 67.04C152.349 66.912 150.813 66.912 149.405 66.912C146.461 66.912 143.645 67.04 140.445 67.04C132.381 67.04 124.701 68.448 124.701 77.536C124.701 80.48 125.085 83.424 125.085 86.496C125.085 90.336 123.677 93.28 119.837 93.28C111.517 93.28 107.805 93.28 107.805 85.6ZM128.797 60C130.973 60.128 136.093 60.128 141.085 60.128C146.077 60.128 151.069 60.128 153.245 59.744V57.056C153.245 42.976 148.765 23.648 145.053 19.04C141.981 31.456 140.573 32.096 128.797 60ZM212.089 68.96C212.089 63.584 215.929 58.336 221.689 58.336C229.369 58.336 233.977 65.632 236.665 71.904C239.737 80.736 243.577 91.872 254.585 91.872C260.217 91.872 265.465 88.032 265.465 81.888C265.465 75.104 260.857 69.6 255.097 66.144C231.033 51.424 211.065 46.432 211.065 25.44C211.065 12.64 222.713 0.351997 236.921 0.351997H250.617C260.601 0.351997 265.977 6.368 274.169 11.232C275.577 12 277.369 12.768 278.905 13.152C281.849 13.792 283.385 12.896 283.385 16.352C283.385 23.264 276.729 28.128 270.073 28.128C263.161 28.128 257.785 22.88 254.457 17.248C249.849 9.312 248.313 2.144 238.457 2.144C232.569 2.144 228.345 5.856 228.345 11.872C228.345 17.12 233.337 20.96 237.433 23.136L267.897 39.52C282.745 47.456 287.353 58.336 287.353 67.296C287.353 72.16 286.073 76.512 284.281 79.584C279.801 87.392 270.073 93.408 254.585 93.408C241.657 93.408 225.913 92.896 217.081 81.76C213.881 77.792 212.089 74.08 212.089 68.96ZM317.466 77.664C317.466 64.48 323.866 52.448 328.602 39.776C331.29 32.608 332.186 24.8 332.186 17.12C332.186 10.976 329.37 2.272 321.946 2.272C316.57 2.272 313.242 8.032 311.194 12C307.866 18.528 305.69 22.368 304.922 23.648C303.642 25.952 298.906 31.456 295.962 31.456C294.554 31.456 293.53 30.176 293.53 26.848C293.53 21.6 295.834 16.736 295.834 8.28799C295.706 6.112 294.17 4.31999 294.17 2.144C294.17 1.12 294.682 0.735992 295.834 0.479996C302.362 0.351997 308.506 0.351997 314.778 0.351997C327.194 0.351997 339.354 0.479996 352.538 0.479996H383.258C389.018 0.479996 390.298 8.28799 390.298 15.712C390.298 20.96 389.658 22.752 389.658 27.232C389.658 30.816 390.554 32.736 390.554 33.504C390.554 33.76 390.426 33.888 390.17 33.888C382.362 33.888 379.162 21.216 375.834 16.48C371.354 10.336 364.314 3.936 356.122 3.55199C359.962 9.952 361.498 16.864 361.498 24.288C361.498 30.176 360.858 36.32 359.962 42.592C359.194 47.456 357.914 51.68 357.914 56.672C357.914 63.2 359.834 69.6 361.626 75.616C362.266 79.072 362.394 80.864 362.394 82.784C362.394 88.288 357.146 93.408 351.642 93.408H329.754C320.282 93.408 317.466 86.24 317.466 77.664ZM437.285 79.584C437.285 52.192 451.749 42.336 451.749 18.4C451.749 14.304 450.981 9.56799 448.549 5.98399C446.757 2.784 443.813 2.91199 443.813 1.632C443.813 0.479996 447.013 0.223999 449.957 0.223999H478.117C487.589 0.223999 497.317 0.223999 507.557 0.095993C516.645 0.095993 519.973 6.49599 521.637 14.816C521.765 15.712 521.893 16.736 521.893 17.632C521.893 22.624 520.101 27.488 520.101 32.352C520.101 35.168 521.125 37.984 521.125 40.672C521.125 41.568 520.741 41.952 519.973 41.952C518.053 41.952 514.213 39.392 513.189 38.624C507.685 34.784 504.485 28.512 502.437 22.112C498.341 9.952 488.869 2.656 478.629 2.656C477.605 2.656 474.533 2.784 473.509 2.91199C476.709 7.26399 480.549 14.56 480.549 25.696C480.549 29.92 479.909 34.272 479.909 38.496C479.909 39.136 485.541 39.264 486.181 39.264C491.045 39.264 492.709 35.936 492.709 31.712C492.709 27.104 490.789 24.288 487.845 20.448C487.845 20.32 487.717 19.936 487.717 19.808C487.717 18.4 488.869 17.248 489.893 17.248C490.021 17.248 490.149 17.376 490.277 17.376C495.013 19.168 497.189 28.384 497.189 33.504C497.189 37.344 495.909 39.136 495.909 41.44C495.909 45.28 496.933 51.424 496.933 55.136C496.933 58.592 494.757 64.096 490.533 64.096C489.765 64.096 488.357 63.84 488.357 62.816C488.357 61.28 489.893 59.488 489.893 57.824C489.893 52.96 483.749 47.84 478.373 47.456C477.477 51.936 477.349 55.904 477.349 60.512C477.349 69.984 481.061 80.864 491.813 82.272C491.813 70.752 499.109 62.048 507.557 56.544C510.245 54.88 513.701 53.984 516.773 53.984C519.717 53.984 523.301 56.16 523.301 62.56C523.301 66.912 521.637 71.008 521.637 75.36V76C521.637 76.128 521.765 76.384 521.765 76.512C522.405 78.688 523.301 81.632 523.301 85.856C523.301 91.104 519.461 93.536 514.085 93.536H492.197C486.309 93.536 482.213 89.44 479.653 87.52C476.965 90.464 472.869 93.408 468.645 93.408C464.677 93.408 459.557 93.536 454.565 93.536C451.365 93.536 448.293 93.28 445.733 92.384C441.125 90.72 437.285 84.576 437.285 79.584ZM549.402 93.536C540.954 93.536 533.53 88.672 533.53 79.072C533.53 56.544 549.402 40.544 549.402 18.272C549.402 12.768 547.866 8.16 544.282 4.19199C544.154 3.936 544.026 3.296 544.026 3.168C544.026 2.016 548.506 1.632 549.914 1.632C556.826 1.632 565.146 0.863998 573.21 0.863998C578.97 0.863998 584.602 1.24799 589.466 2.52799C612.89 8.8 627.866 35.68 627.866 58.208C627.866 72.544 621.85 87.648 606.746 92C606.618 92 606.49 92.128 606.362 92.128C604.57 92.64 602.138 93.28 585.754 93.28C581.53 93.28 577.05 91.616 573.466 89.184C572.314 90.72 569.754 93.536 565.146 93.536H549.402ZM579.866 23.904C579.866 37.984 575.13 51.808 575.13 66.144C575.13 68.704 575.258 71.264 575.642 73.824C577.946 81.248 583.066 85.984 590.874 85.984H592.026C588.954 78.816 587.546 70.624 587.546 62.816C587.546 51.168 591.386 39.904 591.386 28.256C591.386 15.456 587.418 2.91199 571.29 2.91199C577.178 8.8 579.866 15.712 579.866 23.904ZM654.752 93.536C644.256 93.536 635.296 86.88 635.296 71.392C637.6 45.408 649.12 38.368 649.12 17.12C649.12 12.64 647.968 6.24 642.208 6.24C640.288 6.24 639.136 6.88 637.472 6.88C636.832 6.88 636.576 6.62399 636.576 5.34399C636.576 3.55199 642.336 2.144 645.28 2.144C647.712 2.144 650.016 2.784 652.448 2.784C655.648 2.784 657.824 0.223999 660.512 0.223999C667.808 0.223999 673.44 18.528 674.464 23.264C674.976 25.568 675.232 28.128 675.232 30.56C675.232 34.144 674.976 37.856 674.848 41.824V42.848C674.848 54.24 678.944 61.152 678.944 71.008C678.944 84.448 670.624 93.536 654.752 93.536ZM713.316 77.664C713.316 64.48 719.716 52.448 724.452 39.776C727.14 32.608 728.036 24.8 728.036 17.12C728.036 10.976 725.22 2.272 717.796 2.272C712.42 2.272 709.092 8.032 707.044 12C703.716 18.528 701.54 22.368 700.772 23.648C699.492 25.952 694.756 31.456 691.812 31.456C690.404 31.456 689.38 30.176 689.38 26.848C689.38 21.6 691.684 16.736 691.684 8.28799C691.556 6.112 690.02 4.31999 690.02 2.144C690.02 1.12 690.532 0.735992 691.684 0.479996C698.212 0.351997 704.356 0.351997 710.628 0.351997C723.044 0.351997 735.204 0.479996 748.388 0.479996H779.108C784.868 0.479996 786.148 8.28799 786.148 15.712C786.148 20.96 785.508 22.752 785.508 27.232C785.508 30.816 786.404 32.736 786.404 33.504C786.404 33.76 786.276 33.888 786.02 33.888C778.212 33.888 775.012 21.216 771.684 16.48C767.204 10.336 760.164 3.936 751.972 3.55199C755.812 9.952 757.348 16.864 757.348 24.288C757.348 30.176 756.708 36.32 755.812 42.592C755.044 47.456 753.764 51.68 753.764 56.672C753.764 63.2 755.684 69.6 757.476 75.616C758.116 79.072 758.244 80.864 758.244 82.784C758.244 88.288 752.996 93.408 747.492 93.408H725.604C716.132 93.408 713.316 86.24 713.316 77.664ZM808.492 93.536C797.996 93.536 789.036 86.88 789.036 71.392C791.34 45.408 802.86 38.368 802.86 17.12C802.86 12.64 801.708 6.24 795.948 6.24C794.028 6.24 792.876 6.88 791.212 6.88C790.572 6.88 790.316 6.62399 790.316 5.34399C790.316 3.55199 796.076 2.144 799.02 2.144C801.452 2.144 803.756 2.784 806.188 2.784C809.388 2.784 811.564 0.223999 814.252 0.223999C821.548 0.223999 827.18 18.528 828.204 23.264C828.716 25.568 828.972 28.128 828.972 30.56C828.972 34.144 828.716 37.856 828.588 41.824V42.848C828.588 54.24 832.684 61.152 832.684 71.008C832.684 84.448 824.364 93.536 808.492 93.536ZM898.672 92.768C895.088 93.152 891.76 93.28 888.56 93.28C856.176 93.28 846.96 76.512 845.296 54.496V52.96C845.296 35.296 865.008 0.863998 889.072 0.479996H889.84C908.784 0.479996 922.992 10.592 930.928 27.104C934.512 34.528 936.176 42.208 936.176 50.144C936.176 71.392 922.224 90.592 898.672 92.768ZM880.112 67.808C880.112 75.488 882.16 87.776 892.144 87.776C896.88 87.776 899.312 83.04 899.312 78.944C899.312 77.024 898.672 74.592 898.672 60.768C898.672 55.52 903.024 25.184 903.024 24.16C903.024 23.648 903.152 23.008 903.152 22.24C903.152 15.84 900.976 2.656 889.456 2.656C887.024 2.656 883.184 4.96 883.184 8.28799C883.184 8.672 883.184 9.952 883.312 10.208C884.72 15.712 885.744 21.344 885.744 26.976C885.744 30.944 884.848 33.12 880.752 58.208C880.24 61.28 880.112 64.736 880.112 67.808ZM967.834 53.088C966.682 45.792 967.066 22.624 960.922 14.688C960.666 14.688 960.41 14.944 960.282 15.328C959.13 22.88 955.418 55.392 954.65 62.56C954.65 67.04 955.418 71.392 956.826 75.872C957.722 78.944 959.386 83.68 959.386 87.264C959.386 90.592 955.162 92.512 951.322 92.512C944.282 92.512 943.77 86.24 943.77 79.968C943.77 70.752 945.434 57.824 947.61 50.528C950.17 41.568 956.57 25.184 956.57 15.584C956.57 9.824 954.65 4.448 949.018 2.784C947.866 2.39999 945.69 2.91199 945.562 1.24799C945.562 0.735992 946.586 0.607994 947.738 0.607994C954.138 0.607994 960.41 0.351997 968.09 0.351997H977.562C983.962 0.351997 988.314 9.312 991.002 14.816C995.738 26.336 997.658 35.936 1002.27 47.328C1002.91 48.864 1004.06 51.296 1005.47 52.448C1006.75 40.672 1014.55 33.632 1014.55 21.472C1014.55 16.224 1013.27 10.592 1009.56 6.62399C1007 3.936 1004.31 3.03999 1004.31 2.272C1004.31 0.991997 1004.83 0.351997 1006.36 0.351997H1013.15C1015.45 0.351997 1017.75 0.351997 1020.19 0.607994C1020.83 0.735992 1020.83 1.88799 1020.83 2.272C1020.83 3.808 1019.67 4.064 1018.65 5.34399C1017.37 6.752 1016.73 8.92799 1016.73 11.36C1018.27 17.76 1019.29 24.032 1019.29 30.688C1019.29 38.88 1016.09 46.688 1016.09 55.264C1016.09 56.032 1016.22 56.672 1016.22 57.44C1016.47 62.56 1016.99 67.04 1019.29 71.904C1019.55 72.544 1022.36 77.792 1022.75 78.432C1023.64 80.224 1024.15 82.656 1024.15 84.96C1024.15 87.136 1023.77 89.312 1022.75 90.976C1021.98 92.256 1019.67 93.024 1018.27 93.152C1013.66 93.664 1009.05 93.92 1004.44 93.92C999.578 93.92 994.586 93.664 989.722 92.896C987.29 92.512 984.986 90.848 983.45 89.056C972.954 78.048 970.138 67.04 967.834 53.088ZM1036.66 68.96C1036.66 63.584 1040.5 58.336 1046.26 58.336C1053.94 58.336 1058.55 65.632 1061.24 71.904C1064.31 80.736 1068.15 91.872 1079.16 91.872C1084.79 91.872 1090.04 88.032 1090.04 81.888C1090.04 75.104 1085.43 69.6 1079.67 66.144C1055.61 51.424 1035.64 46.432 1035.64 25.44C1035.64 12.64 1047.29 0.351997 1061.5 0.351997H1075.19C1085.18 0.351997 1090.55 6.368 1098.74 11.232C1100.15 12 1101.94 12.768 1103.48 13.152C1106.42 13.792 1107.96 12.896 1107.96 16.352C1107.96 23.264 1101.3 28.128 1094.65 28.128C1087.74 28.128 1082.36 22.88 1079.03 17.248C1074.42 9.312 1072.89 2.144 1063.03 2.144C1057.14 2.144 1052.92 5.856 1052.92 11.872C1052.92 17.12 1057.91 20.96 1062.01 23.136L1092.47 39.52C1107.32 47.456 1111.93 58.336 1111.93 67.296C1111.93 72.16 1110.65 76.512 1108.86 79.584C1104.38 87.392 1094.65 93.408 1079.16 93.408C1066.23 93.408 1050.49 92.896 1041.66 81.76C1038.46 77.792 1036.66 74.08 1036.66 68.96Z" fill="#F1F0FC"/>
</svg>
